<svg width="26" height="26" viewBox="0 0 26 26" fill="none" xmlns="http://www.w3.org/2000/svg">
<g id="_&#235;&#160;&#136;&#236;&#157;&#180;&#236;&#150;&#180;_1" clip-path="url(#clip0_3998_13966)">
<path id="Vector" d="M1.08594 1.46484H3.7526H6.41927" stroke="black" stroke-width="1.5" stroke-linecap="round" stroke-linejoin="round"/>
<path id="Vector_2" d="M1.08594 24.1318H3.7526H6.41927" stroke="black" stroke-width="1.5" stroke-linecap="round" stroke-linejoin="round"/>
<path id="Vector_3" d="M3.75195 24.1315V1.46484" stroke="black" stroke-width="1.5" stroke-linecap="round" stroke-linejoin="round"/>
<path id="Vector_4" d="M23.0859 4.13184V9.10517C23.0859 7.86517 21.8193 7.86517 21.8193 7.86517H18.0059V22.7985H14.1926V7.86517H10.3793C10.3793 7.86517 9.1126 7.86517 9.1126 9.10517V4.13184H23.1126M23.0859 2.13184H9.08594C7.97927 2.13184 7.08594 3.02517 7.08594 4.13184V9.10517C7.08594 10.2118 7.97927 11.1052 9.08594 11.1052C9.92594 11.1052 10.6459 10.5852 10.9393 9.86517H12.1793V22.7985C12.1793 23.9052 13.0726 24.7985 14.1793 24.7985H17.9926C19.0993 24.7985 19.9926 23.9052 19.9926 22.7985V9.86517H21.2326C21.5259 10.5985 22.2459 11.1052 23.0859 11.1052C24.1926 11.1052 25.0859 10.2118 25.0859 9.10517V4.13184C25.0859 3.02517 24.1926 2.13184 23.0859 2.13184Z" fill="black"/>
</g>
<defs>
<clipPath id="clip0_3998_13966">
<rect width="25" height="24.6667" fill="white" transform="translate(0.0859375 0.464844)"/>
</clipPath>
</defs>
</svg>
