<svg width="72" height="24" viewBox="0 0 72 24" fill="none" xmlns="http://www.w3.org/2000/svg">
<g id="Group 1">
<path id="Vector" d="M64.4108 5.01819C65.379 5.01819 66.23 5.2074 66.964 5.58583C67.698 5.94912 68.2758 6.42594 68.6974 7.01628V5.22254H72.0003V17.8923C72.0003 19.0578 71.7582 20.0947 71.2741 21.0029C70.79 21.9263 70.0638 22.6529 69.0956 23.1827C68.1274 23.7276 66.9562 24.0001 65.582 24.0001C63.7393 24.0001 62.2245 23.5838 61.0376 22.7513C59.8664 21.9187 59.2027 20.7835 59.0466 19.3454H62.3026C62.4743 19.9206 62.8413 20.3748 63.4035 20.7078C63.9813 21.0559 64.6762 21.23 65.4883 21.23C66.4409 21.23 67.2139 20.95 67.8073 20.3899C68.4007 19.845 68.6974 19.0124 68.6974 17.8923V15.9396C68.2758 16.5299 67.6902 17.0219 66.9406 17.4155C66.2066 17.809 65.3633 18.0058 64.4108 18.0058C63.3176 18.0058 62.3182 17.7333 61.4124 17.1884C60.5067 16.6435 59.7883 15.879 59.2574 14.8951C58.742 13.8961 58.4844 12.7532 58.4844 11.4666C58.4844 10.1951 58.742 9.06736 59.2574 8.08345C59.7883 7.09954 60.4989 6.34268 61.389 5.81289C62.2947 5.28309 63.302 5.01819 64.4108 5.01819ZM68.6974 11.512C68.6974 10.74 68.5413 10.0815 68.2289 9.53661C67.9166 8.97654 67.495 8.5527 66.964 8.26509C66.4331 7.96235 65.8631 7.81098 65.254 7.81098C64.645 7.81098 64.0828 7.95478 63.5675 8.24239C63.0521 8.52999 62.6305 8.95383 62.3026 9.5139C61.9902 10.0588 61.8341 10.7097 61.8341 11.4666C61.8341 12.2234 61.9902 12.8895 62.3026 13.4647C62.6305 14.0248 63.0521 14.4562 63.5675 14.7589C64.0984 15.0616 64.6606 15.213 65.254 15.213C65.8631 15.213 66.4331 15.0692 66.964 14.7816C67.495 14.4789 67.9166 14.055 68.2289 13.5101C68.5413 12.95 68.6974 12.284 68.6974 11.512Z" fill="black"/>
<path id="Vector_2" d="M55.2567 3.72372C54.6789 3.72372 54.1948 3.54965 53.8044 3.20149C53.4296 2.8382 53.2422 2.39166 53.2422 1.86186C53.2422 1.33206 53.4296 0.893088 53.8044 0.544935C54.1948 0.181645 54.6789 0 55.2567 0C55.8345 0 56.3108 0.181645 56.6856 0.544935C57.076 0.893088 57.2712 1.33206 57.2712 1.86186C57.2712 2.39166 57.076 2.8382 56.6856 3.20149C56.3108 3.54965 55.8345 3.72372 55.2567 3.72372ZM56.873 5.22229V17.8012H53.5936V5.22229H56.873Z" fill="black"/>
<path id="Vector_3" d="M41.8185 7.06167C42.2401 6.45618 42.8179 5.96423 43.5519 5.5858C44.3015 5.20738 45.1526 5.01816 46.1051 5.01816C47.2139 5.01816 48.2133 5.28306 49.1035 5.81286C50.0092 6.34266 50.7198 7.09951 51.2351 8.08342C51.766 9.05219 52.0315 10.1799 52.0315 11.4666C52.0315 12.7532 51.766 13.8961 51.2351 14.8951C50.7198 15.879 50.0092 16.6434 49.1035 17.1884C48.2133 17.7333 47.2139 18.0058 46.1051 18.0058C45.1369 18.0058 44.2859 17.8241 43.5519 17.4608C42.8335 17.0824 42.2557 16.598 41.8185 16.0077V17.8014H38.5391V0.999268H41.8185V7.06167ZM48.6818 11.4666C48.6818 10.7097 48.5179 10.0588 48.1899 9.51388C47.8776 8.9538 47.456 8.52997 46.925 8.24236C46.4097 7.95476 45.8475 7.81095 45.2384 7.81095C44.645 7.81095 44.0828 7.96232 43.5519 8.26507C43.0365 8.55267 42.6149 8.97651 42.287 9.53658C41.9746 10.0967 41.8185 10.7551 41.8185 11.512C41.8185 12.2688 41.9746 12.9273 42.287 13.4874C42.6149 14.0474 43.0365 14.4788 43.5519 14.7816C44.0828 15.0692 44.645 15.213 45.2384 15.213C45.8475 15.213 46.4097 15.0616 46.925 14.7589C47.456 14.4561 47.8776 14.0247 48.1899 13.4647C48.5179 12.9046 48.6818 12.2385 48.6818 11.4666Z" fill="black"/>
<path id="Vector_4" d="M30.5569 18.0058C29.3076 18.0058 28.1832 17.7409 27.1838 17.2111C26.1843 16.6662 25.3957 15.9018 24.8179 14.9178C24.2557 13.9339 23.9746 12.7986 23.9746 11.512C23.9746 10.2253 24.2635 9.09006 24.8413 8.10615C25.4347 7.12224 26.239 6.36539 27.254 5.83559C28.2691 5.29066 29.4013 5.01819 30.6506 5.01819C31.8999 5.01819 33.032 5.29066 34.0471 5.83559C35.0622 6.36539 35.8586 7.12224 36.4364 8.10615C37.0298 9.09006 37.3265 10.2253 37.3265 11.512C37.3265 12.7986 37.022 13.9339 36.413 14.9178C35.8196 15.9018 35.0075 16.6662 33.9768 17.2111C32.9618 17.7409 31.8218 18.0058 30.5569 18.0058ZM30.5569 15.2357C31.1503 15.2357 31.7047 15.0995 32.22 14.827C32.751 14.5394 33.1726 14.1156 33.4849 13.5555C33.7972 12.9954 33.9534 12.3143 33.9534 11.512C33.9534 10.3162 33.6255 9.40037 32.9696 8.76462C32.3293 8.11372 31.5407 7.78828 30.6037 7.78828C29.6667 7.78828 28.8781 8.11372 28.2378 8.76462C27.6132 9.40037 27.3009 10.3162 27.3009 11.512C27.3009 12.7078 27.6054 13.6312 28.2144 14.2821C28.8391 14.9178 29.6199 15.2357 30.5569 15.2357Z" fill="black"/>
<path id="Vector_5" d="M17.655 18.0058C16.5931 18.0058 15.6405 17.8242 14.7973 17.4609C13.954 17.0824 13.2825 16.5754 12.7828 15.9396C12.2987 15.3038 12.0332 14.6 11.9863 13.828H15.2892C15.3516 14.3124 15.5937 14.7135 16.0153 15.0314C16.4526 15.3492 16.9913 15.5082 17.6316 15.5082C18.2563 15.5082 18.7404 15.3871 19.0839 15.1449C19.4431 14.9027 19.6227 14.5924 19.6227 14.214C19.6227 13.8053 19.4041 13.5025 18.9668 13.3057C18.5452 13.0938 17.8659 12.8668 16.9289 12.6246C15.9607 12.3975 15.1642 12.1629 14.5396 11.9207C13.9306 11.6785 13.3996 11.3076 12.9467 10.8081C12.5095 10.3086 12.2908 9.635 12.2908 8.78732C12.2908 8.09102 12.4939 7.45526 12.8999 6.88005C13.3215 6.30484 13.9149 5.85073 14.6801 5.51771C15.461 5.1847 16.3745 5.01819 17.4208 5.01819C18.9668 5.01819 20.2005 5.39662 21.1219 6.15347C22.0432 6.89519 22.5507 7.9018 22.6444 9.17332H19.5056C19.4587 8.67379 19.2401 8.28023 18.8497 7.99262C18.4749 7.68988 17.9674 7.53851 17.3271 7.53851C16.7337 7.53851 16.273 7.64447 15.9451 7.85639C15.6327 8.06831 15.4766 8.36348 15.4766 8.74191C15.4766 9.16575 15.6952 9.4912 16.1325 9.71825C16.5697 9.93017 17.249 10.1497 18.1704 10.3767C19.1073 10.6038 19.8804 10.8384 20.4894 11.0806C21.0984 11.3228 21.6216 11.7012 22.0588 12.2159C22.5117 12.7154 22.7459 13.3814 22.7616 14.214C22.7616 14.9405 22.5507 15.5914 22.1291 16.1667C21.7231 16.7419 21.1297 17.196 20.3488 17.529C19.5836 17.8469 18.6857 18.0058 17.655 18.0058Z" fill="black"/>
<path id="Vector_6" d="M5.66871 18.0058C4.6068 18.0058 3.65421 17.8242 2.81093 17.4609C1.96765 17.0824 1.29615 16.5754 0.79643 15.9396C0.312326 15.3038 0.0468489 14.6 0 13.828H3.30284C3.36531 14.3124 3.60736 14.7135 4.029 15.0314C4.46626 15.3492 5.00502 15.5082 5.64528 15.5082C6.26994 15.5082 6.75404 15.3871 7.0976 15.1449C7.45677 14.9027 7.63636 14.5924 7.63636 14.214C7.63636 13.8053 7.41773 13.5025 6.98048 13.3057C6.55884 13.0938 5.87953 12.8668 4.94255 12.6246C3.97434 12.3975 3.17791 12.1629 2.55326 11.9207C1.94423 11.6785 1.41327 11.3076 0.960401 10.8081C0.523145 10.3086 0.304517 9.635 0.304517 8.78732C0.304517 8.09102 0.507529 7.45526 0.913552 6.88005C1.33519 6.30484 1.92861 5.85073 2.69381 5.51771C3.47462 5.1847 4.38817 5.01819 5.43446 5.01819C6.98048 5.01819 8.21416 5.39662 9.13552 6.15347C10.0569 6.89519 10.5644 7.9018 10.6581 9.17332H7.51924C7.47239 8.67379 7.25376 8.28023 6.86335 7.99262C6.48856 7.68988 5.98103 7.53851 5.34077 7.53851C4.74735 7.53851 4.28667 7.64447 3.95873 7.85639C3.6464 8.06831 3.49024 8.36348 3.49024 8.74191C3.49024 9.16575 3.70887 9.4912 4.14612 9.71825C4.58338 9.93017 5.26269 10.1497 6.18405 10.3767C7.12102 10.6038 7.89403 10.8384 8.50306 11.0806C9.1121 11.3228 9.63524 11.7012 10.0725 12.2159C10.5254 12.7154 10.7596 13.3814 10.7752 14.214C10.7752 14.9405 10.5644 15.5914 10.1428 16.1667C9.73675 16.7419 9.14333 17.196 8.36252 17.529C7.59732 17.8469 6.69938 18.0058 5.66871 18.0058Z" fill="black"/>
</g>
</svg>
