<svg width="42" height="37" viewBox="0 0 42 37" fill="none" xmlns="http://www.w3.org/2000/svg">
<g id="_&#235;&#160;&#136;&#236;&#157;&#180;&#236;&#150;&#180;_1" clip-path="url(#clip0_3998_40602)">
<path id="Vector" d="M37.123 19.2676C39.8154 19.2676 41.998 17.085 41.998 14.3926C41.998 11.7002 39.8154 9.51758 37.123 9.51758C34.4307 9.51758 32.248 11.7002 32.248 14.3926C32.248 17.085 34.4307 19.2676 37.123 19.2676Z" fill="black"/>
<path id="Vector_2" d="M37.1228 22.5183C36.3644 22.5183 35.6494 22.3883 34.9344 22.1933L31.0778 33.3517H10.6461L4.4061 15.195L20.8728 3.90668L30.1678 10.2767C30.7311 9.32335 31.4678 8.50001 32.3778 7.85001L21.7828 0.59168C21.2194 0.223346 20.5044 0.223346 19.9411 0.59168L1.5461 13.2017C0.93943 13.6133 0.67943 14.3717 0.917763 15.065L7.95943 35.475C8.1761 36.125 8.80443 36.58 9.49776 36.58H32.2694C32.9628 36.58 33.5694 36.1467 33.8078 35.475L38.3144 22.3667C37.9244 22.4317 37.5344 22.4967 37.1228 22.4967V22.5183Z" fill="black"/>
</g>
<defs>
<clipPath id="clip0_3998_40602">
<rect width="41.1667" height="36.2917" fill="white" transform="translate(0.832031 0.30957)"/>
</clipPath>
</defs>
</svg>
