<svg width="41" height="41" viewBox="0 0 41 41" fill="none" xmlns="http://www.w3.org/2000/svg">
<g id="_&#235;&#160;&#136;&#236;&#157;&#180;&#236;&#150;&#180;_1" clip-path="url(#clip0_3998_40577)">
<path id="Vector" d="M39.7476 0.532214C39.0759 -0.0527863 38.0359 0.0338805 37.4509 0.727214L30.5176 8.91721C31.1676 9.13388 31.6442 9.71888 31.6442 10.4339V12.6005L39.9209 2.80721C40.5059 2.11388 40.4192 1.09555 39.7259 0.510547L39.7476 0.532214Z" fill="black"/>
<path id="Vector_2" d="M16.11 30.9746C15.8067 31.3429 15.3517 31.5596 14.875 31.5596H14.8317C14.3333 31.5596 13.8783 31.2996 13.575 30.9096L7.075 22.2429C6.53333 21.5279 6.685 20.5096 7.4 19.9679C8.115 19.4262 9.13333 19.5779 9.675 20.2929L14.9617 27.3346L30.54 8.9179C30.3883 8.87457 30.215 8.80957 30.0417 8.80957H1.875C0.986667 8.80957 0.25 9.54624 0.25 10.4346V38.6012C0.25 39.4896 0.986667 40.2262 1.875 40.2262H30.0417C30.93 40.2262 31.6667 39.4896 31.6667 38.6012V12.6012L16.11 30.9746Z" fill="black"/>
</g>
<defs>
<clipPath id="clip0_3998_40577">
<rect width="40.0833" height="40.0833" fill="white" transform="translate(0.25 0.142578)"/>
</clipPath>
</defs>
</svg>
