<svg width="46" height="37" viewBox="0 0 46 37" fill="none" xmlns="http://www.w3.org/2000/svg">
<g id="_&#235;&#160;&#136;&#236;&#157;&#180;&#236;&#150;&#180;_1" clip-path="url(#clip0_3998_40607)">
<path id="Vector" d="M36.9548 22.5183C32.4698 22.5183 28.8298 18.8783 28.8298 14.3933C28.8298 11.7067 30.1731 9.32335 32.1881 7.85001L21.6148 0.59168C21.0515 0.223346 20.3365 0.223346 19.7731 0.59168L1.37813 13.2017C0.771461 13.6133 0.511461 14.3717 0.749795 15.065L7.79146 35.475C8.00813 36.125 8.63646 36.58 9.3298 36.58H32.1015C32.7948 36.58 33.4015 36.1467 33.6398 35.475L38.1465 22.3667C37.7565 22.4317 37.3665 22.4967 36.9548 22.4967V22.5183Z" fill="black"/>
<path id="Vector_2" d="M36.9551 19.2676C39.6475 19.2676 41.8301 17.085 41.8301 14.3926C41.8301 11.7002 39.6475 9.51758 36.9551 9.51758C34.2627 9.51758 32.0801 11.7002 32.0801 14.3926C32.0801 17.085 34.2627 19.2676 36.9551 19.2676Z" fill="black"/>
</g>
<defs>
<clipPath id="clip0_3998_40607">
<rect width="44.4167" height="36.2917" fill="white" transform="translate(0.664062 0.30957)"/>
</clipPath>
</defs>
</svg>
