<svg width="45" height="28" viewBox="0 0 45 28" fill="none" xmlns="http://www.w3.org/2000/svg">
<g id="&#236;&#143;&#152;&#235;&#185;&#133; &#235;&#161;&#156;&#234;&#179;&#160;">
<path id="Vector" fill-rule="evenodd" clip-rule="evenodd" d="M23.941 2.51602C24.7677 3.13193 24.761 4.32741 24.032 5.05638L19.619 9.46933C19.2962 8.83335 18.9167 8.21878 18.4804 7.63314C17.8644 6.80642 16.669 6.81314 15.94 7.54211L4.95157 18.5305C2.52095 13.7419 3.30732 7.7398 7.31068 3.73645C11.8457 -0.798586 18.9457 -1.2054 23.941 2.51602Z" fill="black"/>
<path id="Vector_2" fill-rule="evenodd" clip-rule="evenodd" d="M4.95127 18.5305C5.27408 19.1665 5.65364 19.7811 6.08995 20.3667C6.70585 21.1935 7.90133 21.1867 8.63031 20.4578L19.6187 9.46936C22.0493 14.2579 21.263 20.2601 17.2596 24.2634C12.7246 28.7985 5.62455 29.2053 0.629328 25.4838C-0.197395 24.8679 -0.190673 23.6725 0.538304 22.9435L4.95127 18.5305Z" fill="black"/>
<path id="Vector_3" d="M37.0258 0H29.0508C28.1713 0 27.4111 0.613892 27.226 1.47366L24.6129 13.607C24.3625 14.7695 25.2485 15.8666 26.4377 15.8666H26.7393L27.226 13.607C27.4111 12.7472 28.1713 12.1333 29.0508 12.1333H37.0258C38.9764 12.1333 40.7628 12.8352 42.1455 14C43.8732 12.5447 44.9706 10.367 44.9706 7.93331C44.9706 3.55186 41.4136 0 37.0258 0Z" fill="black"/>
<path id="Vector_4" d="M26.4377 28.0001H37.0258C41.4136 28.0001 44.9706 24.4482 44.9706 20.0668C44.9706 17.6331 43.8732 15.4554 42.1455 14.0001C40.7628 15.1648 38.9764 15.8668 37.0258 15.8668H26.7393L24.6129 25.7404C24.3625 26.9029 25.2485 28.0001 26.4377 28.0001Z" fill="black"/>
</g>
</svg>
