<svg width="46" height="37" viewBox="0 0 46 37" fill="none" xmlns="http://www.w3.org/2000/svg">
<g id="_&#235;&#160;&#136;&#236;&#157;&#180;&#236;&#150;&#180;_1" clip-path="url(#clip0_3998_58087)">
<path id="Vector" d="M14.7188 16.5664C16.5137 16.5664 17.9688 15.1113 17.9688 13.3164C17.9688 11.5215 16.5137 10.0664 14.7188 10.0664C12.9238 10.0664 11.4688 11.5215 11.4688 13.3164C11.4688 15.1113 12.9238 16.5664 14.7188 16.5664Z" stroke="black" stroke-width="3" stroke-linecap="round" stroke-linejoin="round"/>
<path id="Vector_2" d="M9.10721 19.8164H20.7205C22.1939 19.8164 23.3855 21.0081 23.3855 22.4814V26.3164H6.81055V22.1131C6.81055 20.8347 7.85055 19.8164 9.10721 19.8164Z" stroke="black" stroke-width="3" stroke-linecap="round" stroke-linejoin="round"/>
<path id="Vector_3" d="M43.6003 2.4834H2.43359V34.9834H43.6003V2.4834Z" stroke="black" stroke-width="3" stroke-linecap="round" stroke-linejoin="round"/>
<path id="Vector_4" d="M39.2669 12.2334H28.4336" stroke="black" stroke-width="3" stroke-linecap="round" stroke-linejoin="round"/>
<path id="Vector_5" d="M39.2669 18.7334H28.4336" stroke="black" stroke-width="3" stroke-linecap="round" stroke-linejoin="round"/>
<path id="Vector_6" d="M39.2669 25.2334H28.4336" stroke="black" stroke-width="3" stroke-linecap="round" stroke-linejoin="round"/>
</g>
<defs>
<clipPath id="clip0_3998_58087">
<rect width="44.4167" height="35.75" fill="white" transform="translate(0.808594 0.858398)"/>
</clipPath>
</defs>
</svg>
