<svg width="41" height="41" viewBox="0 0 41 41" fill="none" xmlns="http://www.w3.org/2000/svg">
<g id="_&#235;&#160;&#136;&#236;&#157;&#180;&#236;&#150;&#180;_1" clip-path="url(#clip0_3998_40587)">
<path id="Vector" d="M20.6387 8.81641C22.4336 8.81641 23.8887 7.36133 23.8887 5.56641C23.8887 3.77148 22.4336 2.31641 20.6387 2.31641C18.8437 2.31641 17.3887 3.77148 17.3887 5.56641C17.3887 7.36133 18.8437 8.81641 20.6387 8.81641Z" stroke="black" stroke-width="3" stroke-linecap="round" stroke-linejoin="round"/>
<path id="Vector_2" d="M15.0271 12.0664H26.6405C28.1138 12.0664 29.3055 13.2581 29.3055 14.7314V18.5664H12.7305V14.3631C12.7305 13.0847 13.7705 12.0664 15.0271 12.0664Z" stroke="black" stroke-width="3" stroke-linecap="round" stroke-linejoin="round"/>
<path id="Vector_3" d="M10.1738 29.3994C11.9688 29.3994 13.4238 27.9443 13.4238 26.1494C13.4238 24.3545 11.9688 22.8994 10.1738 22.8994C8.3789 22.8994 6.92383 24.3545 6.92383 26.1494C6.92383 27.9443 8.3789 29.3994 10.1738 29.3994Z" stroke="black" stroke-width="3" stroke-linecap="round" stroke-linejoin="round"/>
<path id="Vector_4" d="M4.56229 32.6494H16.1756C17.649 32.6494 18.8406 33.8411 18.8406 35.3144V39.1494H2.26562V34.9461C2.26562 33.6677 3.30563 32.6494 4.56229 32.6494Z" stroke="black" stroke-width="3" stroke-linecap="round" stroke-linejoin="round"/>
<path id="Vector_5" d="M30.3887 29.3994C32.1836 29.3994 33.6387 27.9443 33.6387 26.1494C33.6387 24.3545 32.1836 22.8994 30.3887 22.8994C28.5937 22.8994 27.1387 24.3545 27.1387 26.1494C27.1387 27.9443 28.5937 29.3994 30.3887 29.3994Z" stroke="black" stroke-width="3" stroke-linecap="round" stroke-linejoin="round"/>
<path id="Vector_6" d="M24.7771 32.6494H36.3905C37.8638 32.6494 39.0555 33.8411 39.0555 35.3144V39.1494H22.4805V34.9461C22.4805 33.6677 23.5205 32.6494 24.7771 32.6494Z" stroke="black" stroke-width="3" stroke-linecap="round" stroke-linejoin="round"/>
</g>
<defs>
<clipPath id="clip0_3998_40587">
<rect width="40.04" height="40.0833" fill="white" transform="translate(0.640625 0.691406)"/>
</clipPath>
</defs>
</svg>
