<svg width="53" height="53" viewBox="0 0 53 53" fill="none" xmlns="http://www.w3.org/2000/svg">
<g id="&#235;&#184;&#148;&#235;&#158;&#153; &#236;&#149;&#132;&#236;&#157;&#180;&#236;&#189;&#152;">
<rect x="0.666016" y="0.191406" width="52" height="52" rx="8" fill="#F8F8F8"/>
<path id="Union" d="M41.6431 35.7875L40.3947 34.956C40.1274 35.3573 40.0693 35.8627 40.2386 36.3142L41.6431 35.7875ZM36.8097 40.6228L37.3364 39.2183C36.8847 39.0489 36.3791 39.1071 35.9777 39.3747L36.8097 40.6228ZM44.544 43.5231L44.0173 44.9276C44.568 45.1341 45.1887 44.9997 45.6046 44.5838C46.0205 44.1678 46.155 43.5472 45.9484 42.9964L44.544 43.5231ZM43.0401 26.1909C43.0401 29.435 42.066 32.447 40.3947 34.956L42.8915 36.6191C44.8807 33.6328 46.0401 30.045 46.0401 26.1909H43.0401ZM27.2075 10.3584C35.9516 10.3584 43.0401 17.4469 43.0401 26.1909H46.0401C46.0401 15.79 37.6084 7.3584 27.2075 7.3584V10.3584ZM11.375 26.1909C11.375 17.4469 18.4635 10.3584 27.2075 10.3584V7.3584C16.8066 7.3584 8.375 15.79 8.375 26.1909H11.375ZM27.2075 42.0235C18.4635 42.0235 11.375 34.935 11.375 26.1909H8.375C8.375 36.5918 16.8066 45.0235 27.2075 45.0235V42.0235ZM35.9777 39.3747C33.4676 41.0481 30.4538 42.0235 27.2075 42.0235V45.0235C31.0642 45.0235 34.6543 43.8626 37.6418 41.8709L35.9777 39.3747ZM36.283 42.0273L44.0173 44.9276L45.0706 42.1186L37.3364 39.2183L36.283 42.0273ZM45.9484 42.9964L43.0476 35.2608L40.2386 36.3142L43.1395 44.0498L45.9484 42.9964Z" fill="black"/>
<ellipse id="Ellipse 14" cx="18.5417" cy="26.1911" rx="2.16667" ry="2.16667" fill="black"/>
<ellipse id="Ellipse 15" cx="27.2077" cy="26.1911" rx="2.16667" ry="2.16667" fill="black"/>
<circle id="Ellipse 16" cx="35.8737" cy="26.1911" r="2.16667" fill="black"/>
</g>
</svg>
