<svg width="28" height="23" viewBox="0 0 28 23" fill="none" xmlns="http://www.w3.org/2000/svg">
<g id="_&#235;&#160;&#136;&#236;&#157;&#180;&#236;&#150;&#180;_1" clip-path="url(#clip0_3998_14220)">
<path id="Vector" d="M4.6875 11.1309C5.79207 11.1309 6.6875 10.2354 6.6875 9.13086C6.6875 8.02629 5.79207 7.13086 4.6875 7.13086C3.58293 7.13086 2.6875 8.02629 2.6875 9.13086C2.6875 10.2354 3.58293 11.1309 4.6875 11.1309Z" fill="black" stroke="black" stroke-width="1.5" stroke-linecap="round" stroke-linejoin="round"/>
<path id="Vector_2" d="M8.02018 15.7975V14.1042C8.02018 13.5709 7.47352 13.1309 6.80685 13.1309H2.40685C1.83352 13.1309 1.35352 13.5042 1.35352 13.9709V15.7975H8.02018Z" fill="black" stroke="black" stroke-width="1.5" stroke-linecap="round" stroke-linejoin="round"/>
<path id="Vector_3" d="M23.3535 5.79785C24.4581 5.79785 25.3535 4.90242 25.3535 3.79785C25.3535 2.69328 24.4581 1.79785 23.3535 1.79785C22.2489 1.79785 21.3535 2.69328 21.3535 3.79785C21.3535 4.90242 22.2489 5.79785 23.3535 5.79785Z" fill="black" stroke="black" stroke-width="1.5" stroke-linecap="round" stroke-linejoin="round"/>
<path id="Vector_4" d="M26.6878 10.4645V8.77119C26.6878 8.23785 26.1411 7.79785 25.4745 7.79785H21.0611C20.4878 7.79785 20.0078 8.17119 20.0078 8.63785V10.4645H26.6745H26.6878Z" fill="black" stroke="black" stroke-width="1.5" stroke-linecap="round" stroke-linejoin="round"/>
<path id="Vector_5" d="M23.3535 17.1309C24.4581 17.1309 25.3535 16.2354 25.3535 15.1309C25.3535 14.0263 24.4581 13.1309 23.3535 13.1309C22.2489 13.1309 21.3535 14.0263 21.3535 15.1309C21.3535 16.2354 22.2489 17.1309 23.3535 17.1309Z" stroke="black" stroke-width="1.5" stroke-linecap="round" stroke-linejoin="round"/>
<path id="Vector_6" d="M20.0195 21.7975V19.9709C20.0195 19.5042 20.4862 19.1309 21.0729 19.1309H25.4862C26.1529 19.1309 26.6995 19.5709 26.6995 20.1042V21.7975H20.0329H20.0195Z" stroke="black" stroke-width="1.5" stroke-linecap="round" stroke-linejoin="round"/>
<path id="Vector_7" d="M9.35352 10.9979L18.6868 5.79785" stroke="black" stroke-width="1.5" stroke-linecap="round" stroke-linejoin="round"/>
</g>
<defs>
<clipPath id="clip0_3998_14220">
<rect width="27.3333" height="22" fill="white" transform="translate(0.353516 0.797852)"/>
</clipPath>
</defs>
</svg>
