<svg width="91" height="31" viewBox="0 0 91 31" fill="none" xmlns="http://www.w3.org/2000/svg">
<g id="&#236;&#143;&#152;&#235;&#185;&#133; &#237;&#133;&#141;&#236;&#138;&#164;&#237;&#138;&#184; &#235;&#161;&#156;&#234;&#179;&#160;">
<path id="Vector" d="M81.4501 6.59473C82.6682 6.59473 83.739 6.838 84.6624 7.32454C85.5858 7.79163 86.3127 8.40467 86.8432 9.16368V6.85746H90.9985V23.147C90.9985 24.6455 90.6939 25.9787 90.0849 27.1464C89.4758 28.3336 88.5623 29.2677 87.3442 29.9489C86.1261 30.6495 84.6525 30.9998 82.9236 30.9998C80.6053 30.9998 78.6996 30.4646 77.2064 29.3942C75.7329 28.3238 74.8979 26.8642 74.7014 25.0153H78.7978C79.0139 25.7549 79.4756 26.3387 80.1829 26.7669C80.9098 27.2145 81.7841 27.4383 82.8057 27.4383C84.0042 27.4383 84.9767 27.0783 85.7233 26.3582C86.4699 25.6576 86.8432 24.5872 86.8432 23.147V20.6364C86.3127 21.3954 85.5759 22.0279 84.6329 22.5339C83.7095 23.0399 82.6486 23.2929 81.4501 23.2929C80.0748 23.2929 78.8174 22.9426 77.6779 22.242C76.5384 21.5414 75.6346 20.5586 74.9667 19.2936C74.3183 18.0091 73.9941 16.5397 73.9941 14.8855C73.9941 13.2507 74.3183 11.8008 74.9667 10.5357C75.6346 9.27072 76.5286 8.29763 77.6485 7.61647C78.788 6.93531 80.0552 6.59473 81.4501 6.59473ZM86.8432 14.9438C86.8432 13.9513 86.6467 13.1047 86.2538 12.4041C85.8608 11.684 85.3304 11.1391 84.6624 10.7693C83.9944 10.38 83.2773 10.1854 82.511 10.1854C81.7448 10.1854 81.0375 10.3703 80.3892 10.7401C79.7408 11.1099 79.2104 11.6548 78.7978 12.3749C78.4049 13.0755 78.2084 13.9124 78.2084 14.8855C78.2084 15.8585 78.4049 16.7149 78.7978 17.4544C79.2104 18.1745 79.7408 18.7292 80.3892 19.1184C81.0572 19.5076 81.7645 19.7022 82.511 19.7022C83.2773 19.7022 83.9944 19.5174 84.6624 19.1476C85.3304 18.7584 85.8608 18.2134 86.2538 17.5128C86.6467 16.7927 86.8432 15.9364 86.8432 14.9438Z" fill="white"/>
<path id="Vector_2" d="M69.9348 4.93043C69.2079 4.93043 68.5989 4.70661 68.1077 4.25899C67.6362 3.79191 67.4004 3.21779 67.4004 2.53662C67.4004 1.85546 67.6362 1.29107 68.1077 0.843447C68.5989 0.376364 69.2079 0.142822 69.9348 0.142822C70.6618 0.142822 71.261 0.376364 71.7325 0.843447C72.2237 1.29107 72.4693 1.85546 72.4693 2.53662C72.4693 3.21779 72.2237 3.79191 71.7325 4.25899C71.261 4.70661 70.6618 4.93043 69.9348 4.93043ZM71.9683 6.85714V23.0299H67.8424V6.85714H71.9683Z" fill="white"/>
<path id="Vector_3" d="M53.0282 9.222C53.5586 8.44353 54.2856 7.81102 55.209 7.32447C56.152 6.83793 57.2228 6.59466 58.4212 6.59466C59.8162 6.59466 61.0736 6.93524 62.1934 7.6164C63.3329 8.29757 64.2269 9.27065 64.8752 10.5357C65.5432 11.7812 65.8772 13.2311 65.8772 14.8854C65.8772 16.5396 65.5432 18.009 64.8752 19.2935C64.2269 20.5585 63.3329 21.5413 62.1934 22.2419C61.0736 22.9426 59.8162 23.2929 58.4212 23.2929C57.2031 23.2929 56.1324 23.0593 55.209 22.5923C54.3052 22.1057 53.5783 21.4829 53.0282 20.7239V23.0301H48.9023V1.42755H53.0282V9.222ZM61.663 14.8854C61.663 13.9123 61.4567 13.0754 61.0441 12.3748C60.6511 11.6547 60.1207 11.1098 59.4527 10.74C58.8043 10.3702 58.0971 10.1854 57.3308 10.1854C56.5843 10.1854 55.877 10.38 55.209 10.7692C54.5606 11.139 54.0302 11.6839 53.6176 12.404C53.2246 13.1241 53.0282 13.9707 53.0282 14.9438C53.0282 15.9169 53.2246 16.7634 53.6176 17.4835C54.0302 18.2036 54.5606 18.7583 55.209 19.1475C55.877 19.5173 56.5843 19.7022 57.3308 19.7022C58.0971 19.7022 58.8043 19.5076 59.4527 19.1183C60.1207 18.7291 60.6511 18.1744 61.0441 17.4543C61.4567 16.7343 61.663 15.8779 61.663 14.8854Z" fill="white"/>
<path id="Vector_4" d="M38.8593 23.2929C37.2875 23.2929 35.8729 22.9524 34.6155 22.2712C33.3581 21.5706 32.366 20.5878 31.6391 19.3227C30.9318 18.0577 30.5781 16.5981 30.5781 14.9438C30.5781 13.2896 30.9416 11.83 31.6685 10.5649C32.4151 9.29992 33.4269 8.32683 34.704 7.64566C35.981 6.94504 37.4054 6.59473 38.9771 6.59473C40.5489 6.59473 41.9733 6.94504 43.2503 7.64566C44.5274 8.32683 45.5293 9.29992 46.2563 10.5649C47.0029 11.83 47.3762 13.2896 47.3762 14.9438C47.3762 16.5981 46.993 18.0577 46.2268 19.3227C45.4802 20.5878 44.4586 21.5706 43.1619 22.2712C41.8849 22.9524 40.4506 23.2929 38.8593 23.2929ZM38.8593 19.7314C39.6058 19.7314 40.3033 19.5563 40.9516 19.206C41.6196 18.8362 42.1501 18.2913 42.543 17.5712C42.936 16.8511 43.1324 15.9753 43.1324 14.9438C43.1324 13.4064 42.7199 12.2289 41.8947 11.4115C41.0892 10.5747 40.097 10.1562 38.9182 10.1562C37.7394 10.1562 36.7472 10.5747 35.9417 11.4115C35.1558 12.2289 34.7629 13.4064 34.7629 14.9438C34.7629 16.4813 35.146 17.6685 35.9122 18.5054C36.6981 19.3227 37.6804 19.7314 38.8593 19.7314Z" fill="white"/>
<path id="Vector_5" d="M22.6298 23.2929C21.2939 23.2929 20.0954 23.0594 19.0345 22.5923C17.9735 22.1058 17.1287 21.4538 16.5 20.6364C15.891 19.819 15.557 18.914 15.498 17.9215H19.6534C19.7319 18.5443 20.0365 19.06 20.5669 19.4687C21.117 19.8774 21.7949 20.0818 22.6004 20.0818C23.3862 20.0818 23.9953 19.9261 24.4275 19.6147C24.8794 19.3033 25.1053 18.9043 25.1053 18.4178C25.1053 17.8923 24.8303 17.5031 24.2802 17.2501C23.7497 16.9776 22.8951 16.6857 21.7163 16.3743C20.4982 16.0824 19.4962 15.7807 18.7103 15.4693C17.9441 15.1579 17.2761 14.6811 16.7063 14.0389C16.1562 13.3966 15.8812 12.5306 15.8812 11.4407C15.8812 10.5455 16.1366 9.72808 16.6474 8.98853C17.1779 8.24898 17.9244 7.66513 18.8871 7.23697C19.8695 6.80881 21.0188 6.59473 22.3351 6.59473C24.2802 6.59473 25.8323 7.08127 26.9914 8.05436C28.1506 9.00799 28.7891 10.3022 28.907 11.937H24.958C24.8991 11.2948 24.624 10.7887 24.1328 10.419C23.6613 10.0297 23.0228 9.83512 22.2173 9.83512C21.4707 9.83512 20.8911 9.97135 20.4785 10.2438C20.0856 10.5163 19.8891 10.8958 19.8891 11.3823C19.8891 11.9273 20.1642 12.3457 20.7143 12.6376C21.2644 12.9101 22.119 13.1923 23.2782 13.4842C24.457 13.7761 25.4295 14.0778 26.1957 14.3892C26.962 14.7006 27.6201 15.1871 28.1702 15.8488C28.74 16.4911 29.0347 17.3474 29.0544 18.4178C29.0544 19.3519 28.7891 20.1888 28.2587 20.9283C27.7478 21.6679 27.0013 22.2517 26.0189 22.6799C25.0562 23.0886 23.9265 23.2929 22.6298 23.2929Z" fill="white"/>
<path id="Vector_6" d="M7.54781 23.2929C6.21183 23.2929 5.01337 23.0594 3.95244 22.5923C2.89151 22.1058 2.0467 21.4538 1.418 20.6364C0.808952 19.819 0.474956 18.914 0.416016 17.9215H4.57132C4.64991 18.5443 4.95443 19.06 5.4849 19.4687C6.03501 19.8774 6.71282 20.0818 7.51834 20.0818C8.30421 20.0818 8.91327 19.9261 9.3455 19.6147C9.79737 19.3033 10.0233 18.9043 10.0233 18.4178C10.0233 17.8923 9.74825 17.5031 9.19814 17.2501C8.66768 16.9776 7.81304 16.6857 6.63423 16.3743C5.41613 16.0824 4.41414 15.7807 3.62827 15.4693C2.86204 15.1579 2.19405 14.6811 1.6243 14.0389C1.07418 13.3966 0.799129 12.5306 0.799129 11.4407C0.799129 10.5455 1.05454 9.72808 1.56535 8.98853C2.09582 8.24898 2.8424 7.66513 3.80509 7.23697C4.78743 6.80881 5.93677 6.59473 7.25311 6.59473C9.19814 6.59473 10.7502 7.08127 11.9094 8.05436C13.0686 9.00799 13.7071 10.3022 13.825 11.937H9.87596C9.81702 11.2948 9.54196 10.7887 9.05079 10.419C8.57927 10.0297 7.94075 9.83512 7.13523 9.83512C6.38865 9.83512 5.80907 9.97135 5.39648 10.2438C5.00355 10.5163 4.80708 10.8958 4.80708 11.3823C4.80708 11.9273 5.08214 12.3457 5.63225 12.6376C6.18236 12.9101 7.03699 13.1923 8.19616 13.4842C9.37496 13.7761 10.3475 14.0778 11.1137 14.3892C11.8799 14.7006 12.5381 15.1871 13.0882 15.8488C13.658 16.4911 13.9527 17.3474 13.9723 18.4178C13.9723 19.3519 13.7071 20.1888 13.1766 20.9283C12.6658 21.6679 11.9192 22.2517 10.9369 22.6799C9.97419 23.0886 8.8445 23.2929 7.54781 23.2929Z" fill="white"/>
</g>
</svg>
