<svg width="57" height="36" viewBox="0 0 57 36" fill="none" xmlns="http://www.w3.org/2000/svg">
<path id="Union" fill-rule="evenodd" clip-rule="evenodd" d="M46.5821 0H36.5488C35.4423 0 34.4859 0.789283 34.253 1.89469L30.9654 17.4945C30.6504 18.9892 31.7651 20.3998 33.2612 20.3998H33.6407L34.253 17.4945C34.4859 16.3891 35.4423 15.5998 36.5488 15.5998H46.5821C49.0362 15.5998 51.2837 16.5023 53.0233 17.9998C55.1968 16.1288 56.5775 13.3289 56.5775 10.1999C56.5775 4.56664 52.1024 0 46.5821 0ZM30.2346 6.50101C31.1518 5.56376 31.1602 4.02673 30.1201 3.23486C23.8356 -1.54978 14.9031 -1.02674 9.19756 4.80397C4.16094 9.95109 3.17161 17.668 6.22957 23.8247L20.0541 9.69692C20.9712 8.75968 22.4752 8.75103 23.2501 9.81395C23.799 10.5669 24.2766 11.3571 24.6827 12.1748L30.2346 6.50101ZM7.66176 26.186C7.11284 25.4331 6.63532 24.6429 6.22919 23.8252L0.677239 29.499C-0.239885 30.4362 -0.248343 31.9733 0.791757 32.7651C7.07624 37.5498 16.0088 37.0267 21.7143 31.196C26.7509 26.0489 27.7403 18.332 24.6823 12.1753L10.8578 26.3031C9.94066 27.2403 8.43663 27.249 7.66176 26.186ZM46.5821 35.9996H33.2612C31.7651 35.9996 30.6504 34.5891 30.9654 33.0944L33.6407 20.3998H46.5821C49.0362 20.3998 51.2837 19.4973 53.0233 17.9998C55.1968 19.8709 56.5775 22.6708 56.5775 25.7998C56.5775 31.433 52.1024 35.9996 46.5821 35.9996Z" fill="white"/>
</svg>
